<svg width="47" height="47" viewBox="0 0 47 47" fill="none" xmlns="http://www.w3.org/2000/svg">
<g clip-path="url(#clip0)">
<path d="M23.1651 22.6401C26.2754 22.6401 28.9687 21.5246 31.1693 19.3236C33.37 17.123 34.4855 14.4304 34.4855 11.3197C34.4855 8.21008 33.37 5.51714 31.169 3.3158C28.968 1.11555 26.2751 0 23.1651 0C20.0544 0 17.3618 1.11555 15.1612 3.31616C12.9606 5.51678 11.8447 8.20972 11.8447 11.3197C11.8447 14.4304 12.9606 17.1233 15.1615 19.324C17.3625 21.5242 20.0555 22.6401 23.1651 22.6401Z" fill="#3CCDD7"/>
<path d="M42.9728 36.1407C42.9093 35.2249 42.7809 34.2259 42.592 33.171C42.4012 32.1081 42.1556 31.1034 41.8615 30.185C41.5578 29.2359 41.1447 28.2985 40.6341 27.4003C40.1041 26.468 39.4816 25.6562 38.7831 24.9881C38.0527 24.2892 37.1584 23.7273 36.1242 23.3175C35.0937 22.9098 33.9516 22.7032 32.7299 22.7032C32.2501 22.7032 31.7861 22.9001 30.89 23.4835C30.3385 23.8432 29.6934 24.2591 28.9734 24.7192C28.3577 25.1115 27.5236 25.479 26.4934 25.8118C25.4883 26.137 24.4678 26.302 23.4606 26.302C22.4533 26.302 21.4331 26.137 20.427 25.8118C19.3978 25.4794 18.5638 25.1118 17.9488 24.7195C17.2356 24.2638 16.5901 23.8478 16.0304 23.4832C15.1354 22.8997 14.671 22.7029 14.1912 22.7029C12.9692 22.7029 11.8275 22.9098 10.7972 23.3178C9.76382 23.727 8.86916 24.2889 8.13801 24.9885C7.43985 25.6569 6.81699 26.4683 6.28773 27.4003C5.77747 28.2985 5.36438 29.2355 5.0603 30.1854C4.76662 31.1037 4.521 32.1081 4.33023 33.171C4.14126 34.2245 4.01289 35.2238 3.94942 36.1418C3.88702 37.0411 3.85547 37.9745 3.85547 38.9172C3.85547 41.3706 4.63538 43.3568 6.17334 44.8216C7.69229 46.2671 9.70214 47.0004 12.1462 47.0004H34.777C37.2211 47.0004 39.2303 46.2674 40.7496 44.8216C42.2879 43.3579 43.0678 41.3714 43.0678 38.9169C43.0674 37.9698 43.0355 37.0357 42.9728 36.1407Z" fill="#3CCDD7"/>
</g>
<defs>
<clipPath id="clip0">
<rect width="47" height="47.0002" fill="white"/>
</clipPath>
</defs>
</svg>
