<svg width="73" height="69" viewBox="0 0 73 69" fill="none" xmlns="http://www.w3.org/2000/svg">
<rect x="3" width="67" height="57" rx="10" fill="#0F052F"/>
<circle cx="36.8084" cy="30.9874" r="26.0505" fill="#3CCDD7"/>
<circle cx="36.8084" cy="30.9874" r="26.0505" fill="url(#paint0_linear)"/>
<path d="M48.2905 26.6507L36.9681 49.2064L35.2921 50.884L33.442 51.4053L30.4932 51.7536L27.0812 50.6567L25.7505 49.2118L36.9572 26.6562L48.2905 26.6507Z" fill="#43D9B8"/>
<path d="M48.2905 26.6507L36.9681 49.2064L35.2921 50.884L33.442 51.4053L30.4932 51.7536L27.0812 50.6567L25.7505 49.2118L36.9572 26.6562L48.2905 26.6507Z" fill="url(#paint1_linear)"/>
<g filter="url(#filter0_d)">
<path d="M21.9836 49.2125L10.7635 26.611L21.9727 26.6056L33.3391 49.207C34.5859 50.8887 35.4136 50.5612 36.9681 49.2053C30.6275 58.2162 24.3365 52.9647 21.9836 49.2125Z" fill="#3CCDD7"/>
</g>
<path d="M25.356 26.6857L36.6836 49.2525L38.3604 50.9309L40.2113 51.4525L43.1615 51.801L46.5751 50.7035L47.9064 49.2579L36.6945 26.6912L25.356 26.6857Z" fill="#43D9B8"/>
<path d="M25.356 26.6857L36.6836 49.2525L38.3604 50.9309L40.2113 51.4525L43.1615 51.801L46.5751 50.7035L47.9064 49.2579L36.6945 26.6912L25.356 26.6857Z" fill="url(#paint2_linear)"/>
<g filter="url(#filter1_d)">
<path d="M51.675 49.2586L62.9003 26.6459L51.6859 26.6405L40.3143 49.2531C39.0669 50.9356 38.2388 50.6079 36.6835 49.2513C43.0271 58.2668 49.321 53.0126 51.675 49.2586Z" fill="#3CCDD7"/>
</g>
<defs>
<filter id="filter0_d" x="0.76355" y="20.5984" width="46.207" height="47.5933" filterUnits="userSpaceOnUse" color-interpolation-filters="sRGB">
<feFlood flood-opacity="0" result="BackgroundImageFix"/>
<feColorMatrix in="SourceAlpha" type="matrix" values="0 0 0 0 0 0 0 0 0 0 0 0 0 0 0 0 0 0 127 0"/>
<feOffset dy="4"/>
<feGaussianBlur stdDeviation="5"/>
<feColorMatrix type="matrix" values="0 0 0 0 0 0 0 0 0 0 0 0 0 0 0 0 0 0 0.25 0"/>
<feBlend mode="normal" in2="BackgroundImageFix" result="effect1_dropShadow"/>
<feBlend mode="normal" in="SourceGraphic" in2="effect1_dropShadow" result="shape"/>
</filter>
<filter id="filter1_d" x="26.6812" y="20.6333" width="46.2192" height="47.6069" filterUnits="userSpaceOnUse" color-interpolation-filters="sRGB">
<feFlood flood-opacity="0" result="BackgroundImageFix"/>
<feColorMatrix in="SourceAlpha" type="matrix" values="0 0 0 0 0 0 0 0 0 0 0 0 0 0 0 0 0 0 127 0"/>
<feOffset dy="4"/>
<feGaussianBlur stdDeviation="5"/>
<feColorMatrix type="matrix" values="0 0 0 0 0 0 0 0 0 0 0 0 0 0 0 0 0 0 0.25 0"/>
<feBlend mode="normal" in2="BackgroundImageFix" result="effect1_dropShadow"/>
<feBlend mode="normal" in="SourceGraphic" in2="effect1_dropShadow" result="shape"/>
</filter>
<linearGradient id="paint0_linear" x1="36.8526" y1="26.8" x2="36.8526" y2="6.69999" gradientUnits="userSpaceOnUse">
<stop stop-color="#0F052F"/>
<stop offset="0.233771" stop-color="#32294D" stop-opacity="0.854746"/>
<stop offset="1" stop-color="white" stop-opacity="0"/>
</linearGradient>
<linearGradient id="paint1_linear" x1="37.0183" y1="33.3056" x2="26.5064" y2="56.6995" gradientUnits="userSpaceOnUse">
<stop stop-color="#0F052F"/>
<stop offset="0.269483" stop-color="#32294D" stop-opacity="0.854746"/>
<stop offset="1" stop-color="white" stop-opacity="0"/>
</linearGradient>
<linearGradient id="paint2_linear" x1="36.6334" y1="33.3438" x2="47.1507" y2="56.7491" gradientUnits="userSpaceOnUse">
<stop stop-color="#0F052F"/>
<stop offset="0.269483" stop-color="#32294D" stop-opacity="0.854746"/>
<stop offset="1" stop-color="white" stop-opacity="0"/>
</linearGradient>
</defs>
</svg>
